<mxfile host="app.diagrams.net" modified="2020-11-10T09:10:38.428Z" agent="5.0 (Macintosh; Intel Mac OS X 10_14_6) AppleWebKit/537.36 (KHTML, like Gecko) Chrome/85.0.4183.121 Safari/537.36" etag="Se2ZKTIYvJYs2aUKl246" version="13.8.6" type="github">
  <diagram id="C5RBs43oDa-KdzZeNtuy" name="Page-1">
    <mxGraphModel dx="2521" dy="989" grid="1" gridSize="10" guides="1" tooltips="1" connect="1" arrows="1" fold="1" page="1" pageScale="1" pageWidth="827" pageHeight="1169" math="0" shadow="0">
      <root>
        <mxCell id="WIyWlLk6GJQsqaUBKTNV-0" />
        <mxCell id="WIyWlLk6GJQsqaUBKTNV-1" parent="WIyWlLk6GJQsqaUBKTNV-0" />
        <mxCell id="GmQBzEkVq1WQQFQzBYw1-115" value="" style="shape=ext;double=1;rounded=1;whiteSpace=wrap;html=1;dashed=1;" parent="WIyWlLk6GJQsqaUBKTNV-1" vertex="1">
          <mxGeometry x="521.25" y="175" width="500" height="410" as="geometry" />
        </mxCell>
        <mxCell id="GmQBzEkVq1WQQFQzBYw1-69" value="········" style="shape=ext;double=1;rounded=1;html=1;dashed=1;strokeWidth=1;gradientColor=#FFFFFF;opacity=90;labelBackgroundColor=none;labelBorderColor=none;" parent="WIyWlLk6GJQsqaUBKTNV-1" vertex="1">
          <mxGeometry x="130" width="360" height="590" as="geometry" />
        </mxCell>
        <mxCell id="GmQBzEkVq1WQQFQzBYw1-108" value="" style="edgeStyle=orthogonalEdgeStyle;rounded=1;orthogonalLoop=1;jettySize=auto;html=1;strokeColor=#11B827;" parent="WIyWlLk6GJQsqaUBKTNV-1" source="GmQBzEkVq1WQQFQzBYw1-6" target="GmQBzEkVq1WQQFQzBYw1-91" edge="1">
          <mxGeometry relative="1" as="geometry" />
        </mxCell>
        <mxCell id="GmQBzEkVq1WQQFQzBYw1-109" value="" style="edgeStyle=orthogonalEdgeStyle;rounded=1;orthogonalLoop=1;jettySize=auto;html=1;strokeColor=#11B827;" parent="WIyWlLk6GJQsqaUBKTNV-1" source="GmQBzEkVq1WQQFQzBYw1-6" target="GmQBzEkVq1WQQFQzBYw1-91" edge="1">
          <mxGeometry relative="1" as="geometry" />
        </mxCell>
        <mxCell id="GmQBzEkVq1WQQFQzBYw1-6" value="" style="shape=ext;double=1;rounded=1;whiteSpace=wrap;html=1;dashed=1;" parent="WIyWlLk6GJQsqaUBKTNV-1" vertex="1">
          <mxGeometry x="-270" y="200" width="370" height="390" as="geometry" />
        </mxCell>
        <mxCell id="GmQBzEkVq1WQQFQzBYw1-5" value="&lt;h1&gt;&lt;span&gt;&lt;font style=&quot;font-size: 18px&quot;&gt;任务池&lt;/font&gt;&lt;/span&gt;&lt;br&gt;&lt;/h1&gt;" style="text;html=1;strokeColor=none;fillColor=none;spacing=5;spacingTop=-20;whiteSpace=wrap;overflow=hidden;rounded=0;" parent="WIyWlLk6GJQsqaUBKTNV-1" vertex="1">
          <mxGeometry x="-120" y="205" width="70" height="40" as="geometry" />
        </mxCell>
        <mxCell id="GmQBzEkVq1WQQFQzBYw1-9" value="启动实例" style="html=1;shadow=0;dashed=0;shape=mxgraph.bootstrap.rrect;rSize=5;strokeColor=none;strokeWidth=1;fillColor=#33A64C;fontColor=#FFFFFF;whiteSpace=wrap;align=center;verticalAlign=middle;spacingLeft=0;fontStyle=0;fontSize=16;spacing=5;" parent="WIyWlLk6GJQsqaUBKTNV-1" vertex="1">
          <mxGeometry x="-240" y="255" width="90" height="40" as="geometry" />
        </mxCell>
        <mxCell id="GmQBzEkVq1WQQFQzBYw1-10" value="停止实例" style="html=1;shadow=0;dashed=0;shape=mxgraph.bootstrap.rrect;rSize=5;strokeColor=none;strokeWidth=1;fillColor=#33A64C;fontColor=#FFFFFF;whiteSpace=wrap;align=center;verticalAlign=middle;spacingLeft=0;fontStyle=0;fontSize=16;spacing=5;" parent="WIyWlLk6GJQsqaUBKTNV-1" vertex="1">
          <mxGeometry x="-240" y="315" width="90" height="40" as="geometry" />
        </mxCell>
        <mxCell id="GmQBzEkVq1WQQFQzBYw1-11" value="修改参数" style="html=1;shadow=0;dashed=0;shape=mxgraph.bootstrap.rrect;rSize=5;strokeColor=none;strokeWidth=1;fillColor=#33A64C;fontColor=#FFFFFF;whiteSpace=wrap;align=center;verticalAlign=middle;spacingLeft=0;fontStyle=0;fontSize=16;spacing=5;" parent="WIyWlLk6GJQsqaUBKTNV-1" vertex="1">
          <mxGeometry x="-240" y="375" width="90" height="40" as="geometry" />
        </mxCell>
        <mxCell id="GmQBzEkVq1WQQFQzBYw1-12" value="高可用切换" style="html=1;shadow=0;dashed=0;shape=mxgraph.bootstrap.rrect;rSize=5;strokeColor=none;strokeWidth=1;fillColor=#33A64C;fontColor=#FFFFFF;whiteSpace=wrap;align=center;verticalAlign=middle;spacingLeft=0;fontStyle=0;fontSize=16;spacing=5;" parent="WIyWlLk6GJQsqaUBKTNV-1" vertex="1">
          <mxGeometry x="-120" y="255" width="90" height="40" as="geometry" />
        </mxCell>
        <mxCell id="GmQBzEkVq1WQQFQzBYw1-13" value="升级实例" style="html=1;shadow=0;dashed=0;shape=mxgraph.bootstrap.rrect;rSize=5;strokeColor=none;strokeWidth=1;fillColor=#33A64C;fontColor=#FFFFFF;whiteSpace=wrap;align=center;verticalAlign=middle;spacingLeft=0;fontStyle=0;fontSize=16;spacing=5;" parent="WIyWlLk6GJQsqaUBKTNV-1" vertex="1">
          <mxGeometry x="-120" y="315" width="90" height="40" as="geometry" />
        </mxCell>
        <mxCell id="GmQBzEkVq1WQQFQzBYw1-14" value="下线节点" style="html=1;shadow=0;dashed=0;shape=mxgraph.bootstrap.rrect;rSize=5;strokeColor=none;strokeWidth=1;fillColor=#33A64C;fontColor=#FFFFFF;whiteSpace=wrap;align=center;verticalAlign=middle;spacingLeft=0;fontStyle=0;fontSize=16;spacing=5;" parent="WIyWlLk6GJQsqaUBKTNV-1" vertex="1">
          <mxGeometry x="-120" y="375" width="90" height="40" as="geometry" />
        </mxCell>
        <mxCell id="GmQBzEkVq1WQQFQzBYw1-15" value="初始化实例" style="html=1;shadow=0;dashed=0;shape=mxgraph.bootstrap.rrect;rSize=5;strokeColor=none;strokeWidth=1;fillColor=#33A64C;fontColor=#FFFFFF;whiteSpace=wrap;align=center;verticalAlign=middle;spacingLeft=0;fontStyle=0;fontSize=16;spacing=5;" parent="WIyWlLk6GJQsqaUBKTNV-1" vertex="1">
          <mxGeometry x="-10" y="255" width="90" height="40" as="geometry" />
        </mxCell>
        <mxCell id="GmQBzEkVq1WQQFQzBYw1-16" value="删除实例" style="html=1;shadow=0;dashed=0;shape=mxgraph.bootstrap.rrect;rSize=5;strokeColor=none;strokeWidth=1;fillColor=#33A64C;fontColor=#FFFFFF;whiteSpace=wrap;align=center;verticalAlign=middle;spacingLeft=0;fontStyle=0;fontSize=16;spacing=5;" parent="WIyWlLk6GJQsqaUBKTNV-1" vertex="1">
          <mxGeometry x="-10" y="315" width="90" height="40" as="geometry" />
        </mxCell>
        <mxCell id="GmQBzEkVq1WQQFQzBYw1-17" value="新增节点" style="html=1;shadow=0;dashed=0;shape=mxgraph.bootstrap.rrect;rSize=5;strokeColor=none;strokeWidth=1;fillColor=#33A64C;fontColor=#FFFFFF;whiteSpace=wrap;align=center;verticalAlign=middle;spacingLeft=0;fontStyle=0;fontSize=16;spacing=5;" parent="WIyWlLk6GJQsqaUBKTNV-1" vertex="1">
          <mxGeometry x="-10" y="375" width="90" height="40" as="geometry" />
        </mxCell>
        <mxCell id="GmQBzEkVq1WQQFQzBYw1-32" value="&lt;h1&gt;&lt;span style=&quot;font-size: 18px&quot;&gt;迁移任务&lt;/span&gt;&lt;/h1&gt;" style="text;html=1;strokeColor=none;fillColor=none;spacing=5;spacingTop=-20;whiteSpace=wrap;overflow=hidden;rounded=0;" parent="WIyWlLk6GJQsqaUBKTNV-1" vertex="1">
          <mxGeometry x="267.5" y="10" width="85" height="40" as="geometry" />
        </mxCell>
        <mxCell id="GmQBzEkVq1WQQFQzBYw1-51" value="下线节点" style="html=1;shadow=0;dashed=0;shape=mxgraph.bootstrap.rrect;rSize=5;strokeColor=none;strokeWidth=1;fillColor=#33A64C;fontColor=#FFFFFF;whiteSpace=wrap;align=center;verticalAlign=middle;spacingLeft=0;fontStyle=0;fontSize=16;spacing=5;" parent="WIyWlLk6GJQsqaUBKTNV-1" vertex="1">
          <mxGeometry x="160" y="90" width="90" height="40" as="geometry" />
        </mxCell>
        <mxCell id="GmQBzEkVq1WQQFQzBYw1-53" value="关闭实例" style="html=1;shadow=0;dashed=0;shape=mxgraph.bootstrap.rrect;rSize=5;strokeColor=none;strokeWidth=1;fillColor=#33A64C;fontColor=#FFFFFF;whiteSpace=wrap;align=center;verticalAlign=middle;spacingLeft=0;fontStyle=0;fontSize=16;spacing=5;" parent="WIyWlLk6GJQsqaUBKTNV-1" vertex="1">
          <mxGeometry x="160" y="150" width="90" height="40" as="geometry" />
        </mxCell>
        <mxCell id="GmQBzEkVq1WQQFQzBYw1-54" value="上线实例" style="html=1;shadow=0;dashed=0;shape=mxgraph.bootstrap.rrect;rSize=5;strokeColor=none;strokeWidth=1;fillColor=#33A64C;fontColor=#FFFFFF;whiteSpace=wrap;align=center;verticalAlign=middle;spacingLeft=0;fontStyle=0;fontSize=16;spacing=5;" parent="WIyWlLk6GJQsqaUBKTNV-1" vertex="1">
          <mxGeometry x="160" y="450" width="90" height="40" as="geometry" />
        </mxCell>
        <mxCell id="GmQBzEkVq1WQQFQzBYw1-55" value="启动实例" style="html=1;shadow=0;dashed=0;shape=mxgraph.bootstrap.rrect;rSize=5;strokeColor=none;strokeWidth=1;fillColor=#33A64C;fontColor=#FFFFFF;whiteSpace=wrap;align=center;verticalAlign=middle;spacingLeft=0;fontStyle=0;fontSize=16;spacing=5;" parent="WIyWlLk6GJQsqaUBKTNV-1" vertex="1">
          <mxGeometry x="160" y="330" width="90" height="40" as="geometry" />
        </mxCell>
        <mxCell id="GmQBzEkVq1WQQFQzBYw1-67" value="" style="edgeStyle=orthogonalEdgeStyle;rounded=0;orthogonalLoop=1;jettySize=auto;html=1;" parent="WIyWlLk6GJQsqaUBKTNV-1" source="GmQBzEkVq1WQQFQzBYw1-56" target="GmQBzEkVq1WQQFQzBYw1-53" edge="1">
          <mxGeometry relative="1" as="geometry" />
        </mxCell>
        <mxCell id="GmQBzEkVq1WQQFQzBYw1-56" value="修改配置" style="html=1;shadow=0;dashed=0;shape=mxgraph.bootstrap.rrect;rSize=5;strokeColor=none;strokeWidth=1;fillColor=#33A64C;fontColor=#FFFFFF;whiteSpace=wrap;align=center;verticalAlign=middle;spacingLeft=0;fontStyle=0;fontSize=16;spacing=5;" parent="WIyWlLk6GJQsqaUBKTNV-1" vertex="1">
          <mxGeometry x="160" y="210" width="90" height="40" as="geometry" />
        </mxCell>
        <mxCell id="GmQBzEkVq1WQQFQzBYw1-57" value="... ..." style="html=1;shadow=0;dashed=0;shape=mxgraph.bootstrap.rrect;rSize=5;strokeColor=none;strokeWidth=1;fillColor=#33A64C;fontColor=#FFFFFF;whiteSpace=wrap;align=center;verticalAlign=middle;spacingLeft=0;fontStyle=0;fontSize=16;spacing=5;" parent="WIyWlLk6GJQsqaUBKTNV-1" vertex="1">
          <mxGeometry x="160" y="270" width="90" height="40" as="geometry" />
        </mxCell>
        <mxCell id="GmQBzEkVq1WQQFQzBYw1-58" value="升级实例" style="html=1;shadow=0;dashed=0;shape=mxgraph.bootstrap.rrect;rSize=5;strokeColor=none;strokeWidth=1;fillColor=#33A64C;fontColor=#FFFFFF;whiteSpace=wrap;align=center;verticalAlign=middle;spacingLeft=0;fontStyle=0;fontSize=16;spacing=5;" parent="WIyWlLk6GJQsqaUBKTNV-1" vertex="1">
          <mxGeometry x="160" y="390" width="90" height="40" as="geometry" />
        </mxCell>
        <mxCell id="GmQBzEkVq1WQQFQzBYw1-59" value="" style="shape=flexArrow;endArrow=classic;html=1;fillColor=#d5e8d4;strokeColor=#82b366;width=12;endSize=2.62;endWidth=10;" parent="WIyWlLk6GJQsqaUBKTNV-1" edge="1">
          <mxGeometry width="50" height="50" relative="1" as="geometry">
            <mxPoint x="204.5" y="130" as="sourcePoint" />
            <mxPoint x="205" y="150" as="targetPoint" />
          </mxGeometry>
        </mxCell>
        <mxCell id="GmQBzEkVq1WQQFQzBYw1-61" value="" style="shape=flexArrow;endArrow=classic;html=1;fillColor=#d5e8d4;strokeColor=#82b366;width=12;endSize=2.62;endWidth=10;" parent="WIyWlLk6GJQsqaUBKTNV-1" edge="1">
          <mxGeometry width="50" height="50" relative="1" as="geometry">
            <mxPoint x="204.5" y="490" as="sourcePoint" />
            <mxPoint x="205" y="510" as="targetPoint" />
          </mxGeometry>
        </mxCell>
        <mxCell id="GmQBzEkVq1WQQFQzBYw1-62" value="" style="shape=flexArrow;endArrow=classic;html=1;fillColor=#d5e8d4;strokeColor=#82b366;width=12;endSize=2.62;endWidth=10;" parent="WIyWlLk6GJQsqaUBKTNV-1" edge="1">
          <mxGeometry width="50" height="50" relative="1" as="geometry">
            <mxPoint x="204.5" y="430" as="sourcePoint" />
            <mxPoint x="205" y="450" as="targetPoint" />
          </mxGeometry>
        </mxCell>
        <mxCell id="GmQBzEkVq1WQQFQzBYw1-63" value="" style="shape=flexArrow;endArrow=classic;html=1;fillColor=#d5e8d4;strokeColor=#82b366;width=12;endSize=2.62;endWidth=10;" parent="WIyWlLk6GJQsqaUBKTNV-1" edge="1">
          <mxGeometry width="50" height="50" relative="1" as="geometry">
            <mxPoint x="204.5" y="370" as="sourcePoint" />
            <mxPoint x="205" y="390" as="targetPoint" />
          </mxGeometry>
        </mxCell>
        <mxCell id="GmQBzEkVq1WQQFQzBYw1-64" value="" style="shape=flexArrow;endArrow=classic;html=1;fillColor=#d5e8d4;strokeColor=#82b366;width=12;endSize=2.62;endWidth=10;" parent="WIyWlLk6GJQsqaUBKTNV-1" edge="1">
          <mxGeometry width="50" height="50" relative="1" as="geometry">
            <mxPoint x="204.5" y="310" as="sourcePoint" />
            <mxPoint x="205" y="330" as="targetPoint" />
          </mxGeometry>
        </mxCell>
        <mxCell id="GmQBzEkVq1WQQFQzBYw1-65" value="" style="shape=flexArrow;endArrow=classic;html=1;fillColor=#d5e8d4;strokeColor=#82b366;width=12;endSize=2.62;endWidth=10;" parent="WIyWlLk6GJQsqaUBKTNV-1" edge="1">
          <mxGeometry width="50" height="50" relative="1" as="geometry">
            <mxPoint x="205" y="250" as="sourcePoint" />
            <mxPoint x="205.5" y="270" as="targetPoint" />
          </mxGeometry>
        </mxCell>
        <mxCell id="GmQBzEkVq1WQQFQzBYw1-66" value="" style="shape=flexArrow;endArrow=classic;html=1;fillColor=#d5e8d4;strokeColor=#82b366;width=12;endSize=2.62;endWidth=10;" parent="WIyWlLk6GJQsqaUBKTNV-1" edge="1">
          <mxGeometry width="50" height="50" relative="1" as="geometry">
            <mxPoint x="204.5" y="190" as="sourcePoint" />
            <mxPoint x="205" y="210" as="targetPoint" />
          </mxGeometry>
        </mxCell>
        <mxCell id="GmQBzEkVq1WQQFQzBYw1-68" value="... ..." style="html=1;shadow=0;dashed=0;shape=mxgraph.bootstrap.rrect;rSize=5;strokeColor=none;strokeWidth=1;fillColor=#33A64C;fontColor=#FFFFFF;whiteSpace=wrap;align=center;verticalAlign=middle;spacingLeft=0;fontStyle=0;fontSize=16;spacing=5;" parent="WIyWlLk6GJQsqaUBKTNV-1" vertex="1">
          <mxGeometry x="160" y="510" width="90" height="40" as="geometry" />
        </mxCell>
        <mxCell id="GmQBzEkVq1WQQFQzBYw1-73" value="&lt;h1&gt;&lt;span style=&quot;font-size: 18px&quot;&gt;task1&lt;/span&gt;&lt;/h1&gt;" style="text;html=1;strokeColor=none;fillColor=none;spacing=5;spacingTop=-20;whiteSpace=wrap;overflow=hidden;rounded=0;" parent="WIyWlLk6GJQsqaUBKTNV-1" vertex="1">
          <mxGeometry x="172.5" y="50" width="65" height="40" as="geometry" />
        </mxCell>
        <mxCell id="GmQBzEkVq1WQQFQzBYw1-74" value="... ..." style="html=1;shadow=0;dashed=0;shape=mxgraph.bootstrap.rrect;rSize=5;strokeColor=none;strokeWidth=1;fillColor=#33A64C;fontColor=#FFFFFF;whiteSpace=wrap;align=center;verticalAlign=middle;spacingLeft=0;fontStyle=0;fontSize=16;spacing=5;" parent="WIyWlLk6GJQsqaUBKTNV-1" vertex="1">
          <mxGeometry x="270" y="150" width="90" height="40" as="geometry" />
        </mxCell>
        <mxCell id="GmQBzEkVq1WQQFQzBYw1-75" value="" style="shape=flexArrow;endArrow=classic;html=1;fillColor=#d5e8d4;strokeColor=#82b366;width=12;endSize=2.62;endWidth=10;" parent="WIyWlLk6GJQsqaUBKTNV-1" edge="1">
          <mxGeometry width="50" height="50" relative="1" as="geometry">
            <mxPoint x="314.5" y="190" as="sourcePoint" />
            <mxPoint x="315" y="210" as="targetPoint" />
          </mxGeometry>
        </mxCell>
        <mxCell id="GmQBzEkVq1WQQFQzBYw1-76" value="" style="shape=flexArrow;endArrow=classic;html=1;fillColor=#d5e8d4;strokeColor=#82b366;width=12;endSize=2.62;endWidth=10;" parent="WIyWlLk6GJQsqaUBKTNV-1" edge="1">
          <mxGeometry width="50" height="50" relative="1" as="geometry">
            <mxPoint x="315" y="130" as="sourcePoint" />
            <mxPoint x="315.5" y="150" as="targetPoint" />
          </mxGeometry>
        </mxCell>
        <mxCell id="GmQBzEkVq1WQQFQzBYw1-77" value="... ..." style="html=1;shadow=0;dashed=0;shape=mxgraph.bootstrap.rrect;rSize=5;strokeColor=none;strokeWidth=1;fillColor=#33A64C;fontColor=#FFFFFF;whiteSpace=wrap;align=center;verticalAlign=middle;spacingLeft=0;fontStyle=0;fontSize=16;spacing=5;" parent="WIyWlLk6GJQsqaUBKTNV-1" vertex="1">
          <mxGeometry x="270" y="90" width="90" height="40" as="geometry" />
        </mxCell>
        <mxCell id="GmQBzEkVq1WQQFQzBYw1-78" value="... ..." style="html=1;shadow=0;dashed=0;shape=mxgraph.bootstrap.rrect;rSize=5;strokeColor=none;strokeWidth=1;fillColor=#33A64C;fontColor=#FFFFFF;whiteSpace=wrap;align=center;verticalAlign=middle;spacingLeft=0;fontStyle=0;fontSize=16;spacing=5;" parent="WIyWlLk6GJQsqaUBKTNV-1" vertex="1">
          <mxGeometry x="270" y="210" width="90" height="40" as="geometry" />
        </mxCell>
        <mxCell id="GmQBzEkVq1WQQFQzBYw1-79" value="&lt;h1&gt;&lt;span style=&quot;font-size: 18px&quot;&gt;task2&lt;/span&gt;&lt;/h1&gt;" style="text;html=1;strokeColor=none;fillColor=none;spacing=5;spacingTop=-20;whiteSpace=wrap;overflow=hidden;rounded=0;" parent="WIyWlLk6GJQsqaUBKTNV-1" vertex="1">
          <mxGeometry x="282.5" y="50" width="65" height="40" as="geometry" />
        </mxCell>
        <mxCell id="GmQBzEkVq1WQQFQzBYw1-81" value="" style="shape=ext;double=1;rounded=1;whiteSpace=wrap;html=1;dashed=1;" parent="WIyWlLk6GJQsqaUBKTNV-1" vertex="1">
          <mxGeometry x="-267.5" width="365" height="170" as="geometry" />
        </mxCell>
        <mxCell id="GmQBzEkVq1WQQFQzBYw1-87" value="MMM滚动升级" style="html=1;shadow=0;dashed=0;shape=mxgraph.bootstrap.rrect;rSize=5;strokeColor=none;strokeWidth=1;fillColor=#DB2843;fontColor=#FFFFFF;whiteSpace=wrap;align=center;verticalAlign=middle;spacingLeft=0;fontStyle=0;fontSize=16;spacing=5;" parent="WIyWlLk6GJQsqaUBKTNV-1" vertex="1">
          <mxGeometry x="-240" y="60" width="80" height="40" as="geometry" />
        </mxCell>
        <mxCell id="GmQBzEkVq1WQQFQzBYw1-88" value="MMM升级PXC" style="html=1;shadow=0;dashed=0;shape=mxgraph.bootstrap.rrect;rSize=5;strokeColor=none;strokeWidth=1;fillColor=#DB2843;fontColor=#FFFFFF;whiteSpace=wrap;align=center;verticalAlign=middle;spacingLeft=0;fontStyle=0;fontSize=16;spacing=5;" parent="WIyWlLk6GJQsqaUBKTNV-1" vertex="1">
          <mxGeometry x="-125" y="60" width="80" height="40" as="geometry" />
        </mxCell>
        <mxCell id="GmQBzEkVq1WQQFQzBYw1-89" value="集群部署" style="html=1;shadow=0;dashed=0;shape=mxgraph.bootstrap.rrect;rSize=5;strokeColor=none;strokeWidth=1;fillColor=#DB2843;fontColor=#FFFFFF;whiteSpace=wrap;align=center;verticalAlign=middle;spacingLeft=0;fontStyle=0;fontSize=16;spacing=5;" parent="WIyWlLk6GJQsqaUBKTNV-1" vertex="1">
          <mxGeometry x="-10" y="60" width="80" height="40" as="geometry" />
        </mxCell>
        <mxCell id="GmQBzEkVq1WQQFQzBYw1-90" value="集群卸载" style="html=1;shadow=0;dashed=0;shape=mxgraph.bootstrap.rrect;rSize=5;strokeColor=none;strokeWidth=1;fillColor=#DB2843;fontColor=#FFFFFF;whiteSpace=wrap;align=center;verticalAlign=middle;spacingLeft=0;fontStyle=0;fontSize=16;spacing=5;" parent="WIyWlLk6GJQsqaUBKTNV-1" vertex="1">
          <mxGeometry x="-240" y="110" width="80" height="40" as="geometry" />
        </mxCell>
        <mxCell id="GmQBzEkVq1WQQFQzBYw1-91" value="过保替换" style="html=1;shadow=0;dashed=0;shape=mxgraph.bootstrap.rrect;rSize=5;strokeColor=none;strokeWidth=1;fillColor=#DB2843;fontColor=#FFFFFF;whiteSpace=wrap;align=center;verticalAlign=middle;spacingLeft=0;fontStyle=0;fontSize=16;spacing=5;" parent="WIyWlLk6GJQsqaUBKTNV-1" vertex="1">
          <mxGeometry x="-125" y="110" width="80" height="40" as="geometry" />
        </mxCell>
        <mxCell id="GmQBzEkVq1WQQFQzBYw1-93" value="... ..." style="html=1;shadow=0;dashed=0;shape=mxgraph.bootstrap.rrect;rSize=5;strokeColor=none;strokeWidth=1;fillColor=#DB2843;fontColor=#FFFFFF;whiteSpace=wrap;align=center;verticalAlign=middle;spacingLeft=0;fontStyle=0;fontSize=16;spacing=5;" parent="WIyWlLk6GJQsqaUBKTNV-1" vertex="1">
          <mxGeometry x="-10" y="110" width="80" height="40" as="geometry" />
        </mxCell>
        <mxCell id="GmQBzEkVq1WQQFQzBYw1-96" value="" style="shape=flexArrow;endArrow=classic;html=1;fillColor=#f8cecc;strokeColor=#11B827;entryX=1;entryY=0.816;entryDx=0;entryDy=0;entryPerimeter=0;endWidth=11;endSize=6.27;" parent="WIyWlLk6GJQsqaUBKTNV-1" edge="1">
          <mxGeometry width="50" height="50" relative="1" as="geometry">
            <mxPoint x="520" y="400" as="sourcePoint" />
            <mxPoint x="490" y="399.9999999999999" as="targetPoint" />
          </mxGeometry>
        </mxCell>
        <mxCell id="GmQBzEkVq1WQQFQzBYw1-98" value="&lt;h1&gt;&lt;span style=&quot;font-size: 18px&quot;&gt;流程模板&lt;/span&gt;&lt;/h1&gt;" style="text;html=1;strokeColor=none;fillColor=none;spacing=5;spacingTop=-20;whiteSpace=wrap;overflow=hidden;rounded=0;" parent="WIyWlLk6GJQsqaUBKTNV-1" vertex="1">
          <mxGeometry x="-130" y="10" width="80" height="40" as="geometry" />
        </mxCell>
        <mxCell id="GmQBzEkVq1WQQFQzBYw1-99" value="&lt;h1&gt;&lt;span style=&quot;font-size: 18px&quot;&gt;taskN&lt;/span&gt;&lt;/h1&gt;" style="text;html=1;strokeColor=none;fillColor=none;spacing=5;spacingTop=-20;whiteSpace=wrap;overflow=hidden;rounded=0;" parent="WIyWlLk6GJQsqaUBKTNV-1" vertex="1">
          <mxGeometry x="381" y="50" width="65" height="40" as="geometry" />
        </mxCell>
        <mxCell id="GmQBzEkVq1WQQFQzBYw1-100" value="MMM升级PXC" style="html=1;shadow=0;dashed=0;shape=mxgraph.bootstrap.rrect;rSize=5;strokeColor=none;strokeWidth=1;fillColor=#DB2843;fontColor=#FFFFFF;whiteSpace=wrap;align=center;verticalAlign=middle;spacingLeft=0;fontStyle=0;fontSize=16;spacing=5;" parent="WIyWlLk6GJQsqaUBKTNV-1" vertex="1">
          <mxGeometry x="381" y="90" width="80" height="40" as="geometry" />
        </mxCell>
        <mxCell id="GmQBzEkVq1WQQFQzBYw1-101" value="... ..." style="html=1;shadow=0;dashed=0;shape=mxgraph.bootstrap.rrect;rSize=5;strokeColor=none;strokeWidth=1;fillColor=#33A64C;fontColor=#FFFFFF;whiteSpace=wrap;align=center;verticalAlign=middle;spacingLeft=0;fontStyle=0;fontSize=16;spacing=5;" parent="WIyWlLk6GJQsqaUBKTNV-1" vertex="1">
          <mxGeometry x="376" y="210" width="90" height="40" as="geometry" />
        </mxCell>
        <mxCell id="GmQBzEkVq1WQQFQzBYw1-102" value="" style="shape=flexArrow;endArrow=classic;html=1;fillColor=#d5e8d4;strokeColor=#82b366;width=12;endSize=2.62;endWidth=10;" parent="WIyWlLk6GJQsqaUBKTNV-1" edge="1">
          <mxGeometry width="50" height="50" relative="1" as="geometry">
            <mxPoint x="420.5" y="250" as="sourcePoint" />
            <mxPoint x="421" y="270" as="targetPoint" />
          </mxGeometry>
        </mxCell>
        <mxCell id="GmQBzEkVq1WQQFQzBYw1-103" value="" style="shape=flexArrow;endArrow=classic;html=1;fillColor=#d5e8d4;strokeColor=#82b366;width=12;endSize=2.62;endWidth=10;" parent="WIyWlLk6GJQsqaUBKTNV-1" edge="1">
          <mxGeometry width="50" height="50" relative="1" as="geometry">
            <mxPoint x="421" y="190" as="sourcePoint" />
            <mxPoint x="421.5" y="210" as="targetPoint" />
          </mxGeometry>
        </mxCell>
        <mxCell id="GmQBzEkVq1WQQFQzBYw1-104" value="... ..." style="html=1;shadow=0;dashed=0;shape=mxgraph.bootstrap.rrect;rSize=5;strokeColor=none;strokeWidth=1;fillColor=#33A64C;fontColor=#FFFFFF;whiteSpace=wrap;align=center;verticalAlign=middle;spacingLeft=0;fontStyle=0;fontSize=16;spacing=5;" parent="WIyWlLk6GJQsqaUBKTNV-1" vertex="1">
          <mxGeometry x="376" y="150" width="90" height="40" as="geometry" />
        </mxCell>
        <mxCell id="GmQBzEkVq1WQQFQzBYw1-105" value="... ..." style="html=1;shadow=0;dashed=0;shape=mxgraph.bootstrap.rrect;rSize=5;strokeColor=none;strokeWidth=1;fillColor=#33A64C;fontColor=#FFFFFF;whiteSpace=wrap;align=center;verticalAlign=middle;spacingLeft=0;fontStyle=0;fontSize=16;spacing=5;" parent="WIyWlLk6GJQsqaUBKTNV-1" vertex="1">
          <mxGeometry x="376" y="270" width="90" height="40" as="geometry" />
        </mxCell>
        <mxCell id="GmQBzEkVq1WQQFQzBYw1-106" value="" style="shape=flexArrow;endArrow=classic;html=1;fillColor=#d5e8d4;strokeColor=#82b366;width=12;endSize=2.62;endWidth=10;" parent="WIyWlLk6GJQsqaUBKTNV-1" edge="1">
          <mxGeometry width="50" height="50" relative="1" as="geometry">
            <mxPoint x="420.5" y="130" as="sourcePoint" />
            <mxPoint x="421" y="150" as="targetPoint" />
          </mxGeometry>
        </mxCell>
        <mxCell id="GmQBzEkVq1WQQFQzBYw1-107" value="" style="shape=flexArrow;endArrow=classic;html=1;fillColor=#f8cecc;strokeColor=#11B827;width=51;endSize=5.72;" parent="WIyWlLk6GJQsqaUBKTNV-1" edge="1">
          <mxGeometry width="50" height="50" relative="1" as="geometry">
            <mxPoint x="-85" y="200" as="sourcePoint" />
            <mxPoint x="-85.5" y="170" as="targetPoint" />
          </mxGeometry>
        </mxCell>
        <mxCell id="ajD2sKXZ4d3WkDTuDgMa-48" style="edgeStyle=orthogonalEdgeStyle;curved=1;orthogonalLoop=1;jettySize=auto;html=1;exitX=0.5;exitY=1;exitDx=0;exitDy=0;entryX=0.5;entryY=0;entryDx=0;entryDy=0;strokeColor=#007FFF;strokeWidth=4;" edge="1" parent="WIyWlLk6GJQsqaUBKTNV-1" source="GmQBzEkVq1WQQFQzBYw1-110" target="ajD2sKXZ4d3WkDTuDgMa-15">
          <mxGeometry relative="1" as="geometry" />
        </mxCell>
        <mxCell id="GmQBzEkVq1WQQFQzBYw1-110" value="" style="shape=ext;double=1;rounded=1;whiteSpace=wrap;html=1;dashed=1;" parent="WIyWlLk6GJQsqaUBKTNV-1" vertex="1">
          <mxGeometry x="522.5" width="487.5" height="130" as="geometry" />
        </mxCell>
        <mxCell id="GmQBzEkVq1WQQFQzBYw1-111" value="&lt;h1&gt;&lt;span style=&quot;font-size: 18px&quot;&gt;定时任务/调度接口&lt;/span&gt;&lt;/h1&gt;" style="text;html=1;strokeColor=none;fillColor=none;spacing=5;spacingTop=-20;whiteSpace=wrap;overflow=hidden;rounded=0;align=center;" parent="WIyWlLk6GJQsqaUBKTNV-1" vertex="1">
          <mxGeometry x="695" y="10" width="185" height="40" as="geometry" />
        </mxCell>
        <mxCell id="GmQBzEkVq1WQQFQzBYw1-116" value="&lt;h1&gt;&lt;span style=&quot;font-size: 18px&quot;&gt;执行队列&lt;/span&gt;&lt;/h1&gt;" style="text;html=1;strokeColor=none;fillColor=none;spacing=5;spacingTop=-20;whiteSpace=wrap;overflow=hidden;rounded=0;" parent="WIyWlLk6GJQsqaUBKTNV-1" vertex="1">
          <mxGeometry x="747.5" y="180" width="80" height="40" as="geometry" />
        </mxCell>
        <mxCell id="GmQBzEkVq1WQQFQzBYw1-121" value="&lt;h1 style=&quot;font-size: 18px&quot;&gt;&lt;font style=&quot;font-size: 18px&quot;&gt;作为celery的生产者&lt;/font&gt;取出待执行的子任务&lt;/h1&gt;" style="html=1;shadow=0;dashed=0;shape=mxgraph.bootstrap.rrect;rSize=5;strokeColor=none;strokeWidth=1;fillColor=#0085FC;fontColor=#FFFFFF;whiteSpace=wrap;align=center;verticalAlign=middle;spacingLeft=0;fontStyle=0;fontSize=16;spacing=5;opacity=90;" parent="WIyWlLk6GJQsqaUBKTNV-1" vertex="1">
          <mxGeometry x="586.25" y="50" width="370" height="65" as="geometry" />
        </mxCell>
        <mxCell id="GmQBzEkVq1WQQFQzBYw1-123" value="&lt;b&gt;&lt;font style=&quot;font-size: 19px&quot;&gt;Celery&lt;/font&gt;&lt;/b&gt;" style="html=1;shadow=0;dashed=0;shape=mxgraph.bootstrap.rrect;rSize=5;strokeColor=none;strokeWidth=1;fontColor=#ffffff;whiteSpace=wrap;align=center;verticalAlign=middle;spacingLeft=0;fontStyle=0;fontSize=16;spacing=5;opacity=90;fillColor=#007FFF;" parent="WIyWlLk6GJQsqaUBKTNV-1" vertex="1">
          <mxGeometry x="713.75" y="215" width="147.5" height="20" as="geometry" />
        </mxCell>
        <mxCell id="ajD2sKXZ4d3WkDTuDgMa-5" value="" style="html=1;aspect=fixed;strokeColor=none;shadow=0;align=center;verticalAlign=top;fillColor=#3B8DF1;shape=mxgraph.gcp2.gear" vertex="1" parent="WIyWlLk6GJQsqaUBKTNV-1">
          <mxGeometry x="837" y="360" width="50" height="50" as="geometry" />
        </mxCell>
        <mxCell id="ajD2sKXZ4d3WkDTuDgMa-6" value="" style="shape=datastore;whiteSpace=wrap;html=1;strokeColor=#007FFF;fillColor=#FFFFFF;strokeWidth=2;" vertex="1" parent="WIyWlLk6GJQsqaUBKTNV-1">
          <mxGeometry x="950" y="295" width="50" height="50" as="geometry" />
        </mxCell>
        <mxCell id="ajD2sKXZ4d3WkDTuDgMa-8" value="" style="outlineConnect=0;fontColor=#232F3E;gradientColor=none;dashed=0;verticalLabelPosition=bottom;verticalAlign=top;align=center;html=1;fontSize=12;fontStyle=0;aspect=fixed;pointerEvents=1;shape=mxgraph.aws4.user;fillColor=#007FFF;strokeWidth=5;" vertex="1" parent="WIyWlLk6GJQsqaUBKTNV-1">
          <mxGeometry x="565" y="290" width="50" height="50" as="geometry" />
        </mxCell>
        <mxCell id="ajD2sKXZ4d3WkDTuDgMa-9" value="" style="aspect=fixed;pointerEvents=1;shadow=0;dashed=0;html=1;strokeColor=none;labelPosition=center;verticalLabelPosition=bottom;verticalAlign=top;align=center;shape=mxgraph.azure.queue_generic;fillColor=#3B8DF1;" vertex="1" parent="WIyWlLk6GJQsqaUBKTNV-1">
          <mxGeometry x="650" y="295" width="133.33" height="40" as="geometry" />
        </mxCell>
        <mxCell id="ajD2sKXZ4d3WkDTuDgMa-15" value="&lt;h1&gt;&lt;font style=&quot;font-size: 16px&quot; color=&quot;#007fff&quot;&gt;producer&lt;/font&gt;&lt;br&gt;&lt;/h1&gt;" style="text;html=1;strokeColor=none;fillColor=none;spacing=5;spacingTop=-20;whiteSpace=wrap;overflow=hidden;rounded=0;" vertex="1" parent="WIyWlLk6GJQsqaUBKTNV-1">
          <mxGeometry x="552.5" y="255" width="82.5" height="35" as="geometry" />
        </mxCell>
        <mxCell id="ajD2sKXZ4d3WkDTuDgMa-17" value="&lt;h1 style=&quot;text-align: center&quot;&gt;&lt;font style=&quot;font-size: 16px&quot; color=&quot;#007fff&quot;&gt;broker&lt;/font&gt;&lt;br&gt;&lt;/h1&gt;" style="text;html=1;strokeColor=none;fillColor=none;spacing=5;spacingTop=-20;whiteSpace=wrap;overflow=hidden;rounded=0;" vertex="1" parent="WIyWlLk6GJQsqaUBKTNV-1">
          <mxGeometry x="680" y="255" width="81.25" height="30" as="geometry" />
        </mxCell>
        <mxCell id="ajD2sKXZ4d3WkDTuDgMa-19" value="&lt;b&gt;&lt;span style=&quot;font-size: 16px ; color: rgb(0 , 127 , 255)&quot;&gt;celery&lt;/span&gt;&lt;br&gt;&lt;/b&gt;&lt;div&gt;&lt;font style=&quot;font-size: 16px&quot; color=&quot;#007fff&quot;&gt;&lt;b&gt;worker&lt;/b&gt;&lt;/font&gt;&lt;/div&gt;" style="text;html=1;strokeColor=none;fillColor=none;spacing=5;spacingTop=-20;whiteSpace=wrap;overflow=hidden;rounded=0;align=center;" vertex="1" parent="WIyWlLk6GJQsqaUBKTNV-1">
          <mxGeometry x="817" y="260" width="90" height="25" as="geometry" />
        </mxCell>
        <mxCell id="ajD2sKXZ4d3WkDTuDgMa-20" value="&lt;h1&gt;&lt;font style=&quot;font-size: 16px&quot; color=&quot;#007fff&quot;&gt;backend&lt;/font&gt;&lt;br&gt;&lt;/h1&gt;" style="text;html=1;strokeColor=none;fillColor=none;spacing=5;spacingTop=-20;whiteSpace=wrap;overflow=hidden;rounded=0;" vertex="1" parent="WIyWlLk6GJQsqaUBKTNV-1">
          <mxGeometry x="940" y="255" width="81.25" height="30" as="geometry" />
        </mxCell>
        <mxCell id="ajD2sKXZ4d3WkDTuDgMa-22" value="" style="endArrow=classic;html=1;strokeColor=#007FFF;strokeWidth=4;" edge="1" parent="WIyWlLk6GJQsqaUBKTNV-1">
          <mxGeometry width="50" height="50" relative="1" as="geometry">
            <mxPoint x="615" y="315" as="sourcePoint" />
            <mxPoint x="645" y="315" as="targetPoint" />
            <Array as="points" />
          </mxGeometry>
        </mxCell>
        <mxCell id="ajD2sKXZ4d3WkDTuDgMa-26" value="" style="shape=image;html=1;verticalAlign=top;verticalLabelPosition=bottom;labelBackgroundColor=#007FFF;imageAspect=0;aspect=fixed;image=https://cdn2.iconfinder.com/data/icons/font-awesome/1792/ellipsis-v-128.png;strokeColor=#007FFF;strokeWidth=1;fillColor=#007FFF;" vertex="1" parent="WIyWlLk6GJQsqaUBKTNV-1">
          <mxGeometry x="847" y="490" width="30" height="30" as="geometry" />
        </mxCell>
        <mxCell id="ajD2sKXZ4d3WkDTuDgMa-27" value="" style="endArrow=none;html=1;strokeColor=#007FFF;strokeWidth=4;" edge="1" parent="WIyWlLk6GJQsqaUBKTNV-1">
          <mxGeometry width="50" height="50" relative="1" as="geometry">
            <mxPoint x="800" y="315" as="sourcePoint" />
            <mxPoint x="830" y="315" as="targetPoint" />
          </mxGeometry>
        </mxCell>
        <mxCell id="ajD2sKXZ4d3WkDTuDgMa-32" value="" style="endArrow=none;html=1;strokeColor=#007FFF;strokeWidth=4;" edge="1" parent="WIyWlLk6GJQsqaUBKTNV-1">
          <mxGeometry width="50" height="50" relative="1" as="geometry">
            <mxPoint x="900" y="315" as="sourcePoint" />
            <mxPoint x="940" y="315" as="targetPoint" />
          </mxGeometry>
        </mxCell>
        <mxCell id="ajD2sKXZ4d3WkDTuDgMa-37" value="&lt;font color=&quot;#007fff&quot; size=&quot;1&quot;&gt;&lt;b style=&quot;font-size: 20px&quot;&gt;2&lt;/b&gt;&lt;/font&gt;" style="text;html=1;align=center;verticalAlign=middle;resizable=0;points=[];autosize=1;" vertex="1" parent="WIyWlLk6GJQsqaUBKTNV-1">
          <mxGeometry x="847" y="375" width="30" height="20" as="geometry" />
        </mxCell>
        <mxCell id="ajD2sKXZ4d3WkDTuDgMa-38" value="" style="html=1;aspect=fixed;strokeColor=none;shadow=0;align=center;verticalAlign=top;fillColor=#3B8DF1;shape=mxgraph.gcp2.gear" vertex="1" parent="WIyWlLk6GJQsqaUBKTNV-1">
          <mxGeometry x="837" y="430" width="50" height="50" as="geometry" />
        </mxCell>
        <mxCell id="ajD2sKXZ4d3WkDTuDgMa-39" value="&lt;font color=&quot;#007fff&quot; size=&quot;1&quot;&gt;&lt;b style=&quot;font-size: 20px&quot;&gt;N&lt;/b&gt;&lt;/font&gt;" style="text;html=1;align=center;verticalAlign=middle;resizable=0;points=[];autosize=1;" vertex="1" parent="WIyWlLk6GJQsqaUBKTNV-1">
          <mxGeometry x="847" y="535" width="30" height="20" as="geometry" />
        </mxCell>
        <mxCell id="ajD2sKXZ4d3WkDTuDgMa-40" value="" style="html=1;aspect=fixed;strokeColor=none;shadow=0;align=center;verticalAlign=top;fillColor=#3B8DF1;shape=mxgraph.gcp2.gear" vertex="1" parent="WIyWlLk6GJQsqaUBKTNV-1">
          <mxGeometry x="837" y="520" width="50" height="50" as="geometry" />
        </mxCell>
        <mxCell id="ajD2sKXZ4d3WkDTuDgMa-41" value="&lt;font color=&quot;#007fff&quot; size=&quot;1&quot;&gt;&lt;b style=&quot;font-size: 20px&quot;&gt;3&lt;/b&gt;&lt;/font&gt;" style="text;html=1;align=center;verticalAlign=middle;resizable=0;points=[];autosize=1;" vertex="1" parent="WIyWlLk6GJQsqaUBKTNV-1">
          <mxGeometry x="847" y="445" width="30" height="20" as="geometry" />
        </mxCell>
        <mxCell id="ajD2sKXZ4d3WkDTuDgMa-42" value="" style="html=1;aspect=fixed;strokeColor=none;shadow=0;align=center;verticalAlign=top;fillColor=#3B8DF1;shape=mxgraph.gcp2.gear" vertex="1" parent="WIyWlLk6GJQsqaUBKTNV-1">
          <mxGeometry x="837" y="290" width="50" height="50" as="geometry" />
        </mxCell>
        <mxCell id="ajD2sKXZ4d3WkDTuDgMa-43" value="&lt;font color=&quot;#007fff&quot; size=&quot;1&quot;&gt;&lt;b style=&quot;font-size: 20px&quot;&gt;1&lt;/b&gt;&lt;/font&gt;" style="text;html=1;align=center;verticalAlign=middle;resizable=0;points=[];autosize=1;" vertex="1" parent="WIyWlLk6GJQsqaUBKTNV-1">
          <mxGeometry x="847" y="305" width="30" height="20" as="geometry" />
        </mxCell>
        <mxCell id="ajD2sKXZ4d3WkDTuDgMa-46" value="" style="shape=flexArrow;endArrow=classic;html=1;fillColor=#f8cecc;strokeColor=#11B827;entryX=1;entryY=0.816;entryDx=0;entryDy=0;entryPerimeter=0;endWidth=11;endSize=6.27;" edge="1" parent="WIyWlLk6GJQsqaUBKTNV-1">
          <mxGeometry width="50" height="50" relative="1" as="geometry">
            <mxPoint x="520" y="70" as="sourcePoint" />
            <mxPoint x="490" y="70" as="targetPoint" />
          </mxGeometry>
        </mxCell>
        <mxCell id="ajD2sKXZ4d3WkDTuDgMa-49" value="... ..." style="html=1;shadow=0;dashed=0;shape=mxgraph.bootstrap.rrect;rSize=5;strokeColor=none;strokeWidth=1;fillColor=#33A64C;fontColor=#FFFFFF;whiteSpace=wrap;align=center;verticalAlign=middle;spacingLeft=0;fontStyle=0;fontSize=16;spacing=5;" vertex="1" parent="WIyWlLk6GJQsqaUBKTNV-1">
          <mxGeometry x="-240" y="440" width="90" height="40" as="geometry" />
        </mxCell>
        <mxCell id="ajD2sKXZ4d3WkDTuDgMa-50" value="" style="shape=flexArrow;endArrow=classic;html=1;fillColor=#f8cecc;strokeColor=#11B827;endWidth=11;endSize=6.27;entryX=-0.007;entryY=0.664;entryDx=0;entryDy=0;entryPerimeter=0;" edge="1" parent="WIyWlLk6GJQsqaUBKTNV-1" target="GmQBzEkVq1WQQFQzBYw1-69">
          <mxGeometry width="50" height="50" relative="1" as="geometry">
            <mxPoint x="100" y="390" as="sourcePoint" />
            <mxPoint x="129" y="380" as="targetPoint" />
          </mxGeometry>
        </mxCell>
        <mxCell id="ajD2sKXZ4d3WkDTuDgMa-52" value="" style="shape=flexArrow;endArrow=classic;html=1;fillColor=#f8cecc;strokeColor=#11B827;endWidth=11;endSize=6.27;entryX=-0.007;entryY=0.664;entryDx=0;entryDy=0;entryPerimeter=0;" edge="1" parent="WIyWlLk6GJQsqaUBKTNV-1">
          <mxGeometry width="50" height="50" relative="1" as="geometry">
            <mxPoint x="102.52" y="90" as="sourcePoint" />
            <mxPoint x="130.00000000000003" y="91.75999999999976" as="targetPoint" />
          </mxGeometry>
        </mxCell>
      </root>
    </mxGraphModel>
  </diagram>
</mxfile>
